<svg width="155" height="152" viewBox="0 0 155 152" fill="none" xmlns="http://www.w3.org/2000/svg">
<path d="M40.3766 55.2969L36.4766 102.197L81.3766 110.797L85.2766 63.8969L40.4766 55.2969H40.3766Z" fill="#909192"/>
<path d="M49.1758 45.7977L48.6758 45.5977V46.0977C48.8758 45.9977 48.9758 45.8977 49.1758 45.7977Z" fill="#ECF8FE"/>
<path d="M137.777 148.798L21.7773 148.398" stroke="#D3D4D5" stroke-width="6" stroke-linecap="square" stroke-linejoin="round"/>
<path d="M41.0796 66.3953C12.0796 73.8953 2.77957 69.9953 13.2796 54.6953" stroke="#909192" stroke-width="12" stroke-linecap="square" stroke-linejoin="round"/>
<path d="M154.677 72.8953C155.477 68.0953 153.877 63.6953 149.977 59.4953C147.277 56.5953 143.877 54.4953 139.977 53.1953L112.877 48.6953L107.277 82.3953L134.677 86.9953C138.677 86.9953 142.477 85.9953 145.877 84.0953C150.877 81.4953 153.777 77.7953 154.577 72.9953L154.677 72.8953Z" fill="#B8B9B9"/>
<path d="M123.178 67.4961L4.57812 46.4961" stroke="#69696A" stroke-width="7.9" stroke-linecap="square" stroke-linejoin="round"/>
<path d="M43.2789 104.496L41.3789 138.696" stroke="#B8B9BA" stroke-width="12" stroke-linecap="square" stroke-linejoin="round"/>
<path d="M73.5781 106.898L75.1782 140.398" stroke="#B8B9BA" stroke-width="12" stroke-linecap="square" stroke-linejoin="round"/>
<path d="M83.8774 145.398L83.2773 135.398L68.7773 136.298L69.4774 146.298L83.8774 145.398Z" fill="#0A0A0A"/>
<path d="M90.5789 146.598L71.3789 146.798" stroke="#0A0A0A" stroke-width="4" stroke-linecap="square" stroke-linejoin="round"/>
<path d="M47.7773 135.398L34.2773 136.198L34.8774 146.198L48.3774 145.398L47.7773 135.398Z" fill="#0A0A0A"/>
<path d="M46.3774 146.5H26.2773" stroke="#0A0A0A" stroke-width="4" stroke-miterlimit="3" stroke-linecap="square"/>
<path d="M80.7781 92.5977L36.8782 93.0977L33.5781 121.498L83.0781 123.598L80.6782 92.6976L80.7781 92.5977Z" fill="#909192"/>
<path d="M85.3789 69.7969C105.779 83.2969 106.579 92.0969 87.7789 96.2969" stroke="#909192" stroke-width="12" stroke-linecap="square" stroke-linejoin="round"/>
<path d="M85.0789 104.498C83.9789 103.398 82.9789 100.398 81.8789 95.5977" stroke="#B8B9BA" stroke-width="8" stroke-linecap="round" stroke-linejoin="round"/>
<path d="M80.7766 103.498L33.7766 99.3984L33.4766 102.398L80.4766 106.498L80.7766 103.498Z" fill="#B8B9BA"/>
<path d="M52.6766 68.7976L38.1766 67.5977C33.3766 82.5977 30.4766 96.3976 29.4766 109.198C34.0766 110.998 39.1766 111.898 44.6766 111.898C45.4766 99.7976 48.1766 85.3976 52.6766 68.7976Z" fill="#0A0A0A"/>
<path d="M84.1774 61.2969L61.7773 62.2969L63.0773 112.897L89.4774 109.697L84.1774 61.2969Z" fill="#0A0A0A"/>
<path d="M21.9789 54.1984L18.4789 53.7984M25.7789 45.6984L14.8789 43.8984" stroke="#B8B9BA" stroke-width="6" stroke-linecap="square" stroke-linejoin="round"/>
<path d="M82.5785 42.4961L83.1786 39.2961L85.3786 26.8961L45.1785 17.9961L44.9785 19.3961L43.1785 32.8961L42.8786 34.1961L42.1785 37.2961C42.2785 36.5961 42.3785 36.3961 42.1785 36.4961V36.6961L41.9785 37.2961C40.5785 46.3961 46.4786 51.2961 59.8786 51.8961C73.2786 52.4961 80.7785 49.3961 82.5785 42.4961Z" fill="#B8B9BA"/>
<path d="M85.4789 39.8969L83.1789 39.2969L82.5789 42.4969C80.8789 49.3969 73.2789 52.4969 59.8789 51.8969C46.4789 51.2969 40.5789 46.3969 41.9789 37.2969L42.1789 36.6969V36.4969C42.3789 36.3969 42.2789 36.6969 42.1789 37.2969L42.8789 34.1969L43.1789 32.7969L38.6789 34.0969L28.8789 58.5969C46.4789 71.5969 65.8789 75.1969 87.0789 69.5969L85.4789 39.8969Z" fill="white"/>
<path d="M76.2797 7.39688L75.6797 4.79688" stroke="#0A0A0A" stroke-width="8" stroke-linecap="square" stroke-linejoin="round"/>
<path d="M79.0781 6.89531L81.2781 5.69531" stroke="#0A0A0A" stroke-width="5" stroke-linecap="square" stroke-linejoin="round"/>
<path d="M32.7805 66.8953C38.3805 77.2953 44.3805 82.5953 50.6805 82.7953C61.0805 83.3953 70.5805 80.8953 79.2805 75.4953C81.9805 73.7953 84.5804 71.8953 87.0804 69.5953L78.6805 61.2953L37.1805 54.1953L28.9805 58.6953C30.2805 61.7953 31.5805 64.4953 32.8805 66.9953L32.7805 66.8953Z" fill="white"/>
<path d="M89.1773 31.5984L92.0773 20.7984L77.1774 5.39844L36.7773 20.2984V28.3984C54.6773 28.7984 72.0773 29.8984 89.1773 31.4984V31.5984Z" fill="#0A0A0A"/>
<path d="M76.4797 52.7969C76.4797 49.4969 74.6797 46.6969 71.1797 44.2969C67.6797 41.9969 63.4797 40.7969 58.5797 40.7969C53.6797 40.7969 49.3797 41.9969 45.8797 44.2969C42.3797 46.5969 40.6797 49.4969 40.6797 52.7969C40.6797 56.0969 42.3797 58.8969 45.8797 61.1969C49.3797 63.4969 53.6797 64.6969 58.5797 64.6969C63.4797 64.6969 67.6797 63.4969 71.1797 61.1969C74.6797 58.8969 76.4797 56.0969 76.4797 52.7969Z" fill="white"/>
<path d="M75.1782 39.9964C72.6782 38.5964 69.7782 38.1964 66.6782 38.9964M54.1782 37.9964C52.0782 37.0964 50.0781 36.9964 48.0781 37.7964" stroke="#0A0A0A" stroke-width="3" stroke-miterlimit="3" stroke-linecap="square"/>
<path d="M55.0804 40.1977H51.8805L50.4805 45.2977C55.9805 46.3977 61.0805 46.7977 65.7805 46.2977C65.7805 44.2977 65.4805 42.2977 64.9805 40.2977H63.8805C63.7805 38.5977 63.6805 36.9977 63.4805 35.3977L56.6805 34.5977C56.2805 35.9977 55.6805 37.8977 54.8805 40.1977H55.0804Z" fill="#B8B9BA"/>
</svg>
