<svg width="230" height="152" viewBox="0 0 230 152" fill="none" xmlns="http://www.w3.org/2000/svg">
<path d="M170.801 46.3984L170.301 46.5984C170.501 46.5984 170.601 46.7984 170.801 46.9984V46.5984V46.4984V46.3984Z" fill="#ECF8FE"/>
<path d="M153.899 107.198L170.899 105.298L165.699 61.8984L130.199 65.9984L134.799 105.298L132.899 105.098L133.299 109.198L152.099 107.098L153.999 107.298L153.899 107.198Z" fill="#909192"/>
<path d="M3 148.602H226.1" stroke="#D3D4D5" stroke-width="6" stroke-linecap="square" stroke-linejoin="round"/>
<path d="M167 72.9C185.8 76.8 198.1 73.7 203.9 63.5" stroke="#909192" stroke-width="12" stroke-linecap="square" stroke-linejoin="round"/>
<path d="M164.202 105.301L162.102 130.901" stroke="#B8B9BA" stroke-width="12" stroke-linecap="square" stroke-linejoin="round"/>
<path d="M143.902 107.102L128.102 139.302" stroke="#B8B9BA" stroke-width="12" stroke-linecap="square" stroke-linejoin="round"/>
<path d="M115.998 145.398L131.698 146.298L136.598 136.298L120.898 135.398L115.898 145.298L115.998 145.398Z" fill="#0A0A0A"/>
<path d="M110.699 146.598H129.199" stroke="#0A0A0A" stroke-width="4" stroke-linecap="square" stroke-linejoin="round"/>
<path d="M155.401 135.699L168.901 136.499L168.301 146.499L154.801 145.699L155.401 135.699Z" fill="#0A0A0A"/>
<path d="M156.801 146.801H176.901" stroke="#0A0A0A" stroke-width="4" stroke-miterlimit="3" stroke-linecap="square"/>
<path d="M126.098 92.3008L173.898 94.4008L172.798 125.401L118.398 125.801L126.198 92.3008H126.098Z" fill="#909192"/>
<path d="M125.601 100.098L172.801 97.3984L172.501 100.398L125.301 103.098L125.601 100.098Z" fill="#B8B9BA"/>
<path d="M158.5 69.0016L172.9 66.6016C176.7 81.1016 178.7 94.6016 179 107.202C174.3 109.402 169.3 110.702 163.9 111.102C163.9 99.1016 162 85.1016 158.5 69.0016Z" fill="#0A0A0A"/>
<path d="M128.098 65L151.398 67.1L142.598 114.4L115.398 110.1L128.098 65Z" fill="#0A0A0A"/>
<path d="M125.502 72.5C107.702 79.2 98.0016 88.5 96.6016 100.5" stroke="#909192" stroke-width="12" stroke-linecap="square" stroke-linejoin="round"/>
<path d="M207.903 12.1992C209.803 19.2992 210.303 26.0992 209.503 32.5992M204.703 17.3992C206.203 21.1992 206.903 25.1992 206.603 29.4992" stroke="#909192" stroke-linecap="square" stroke-linejoin="round"/>
<path d="M198.898 55.5C200.998 59.7 204.198 62.4 208.398 63.8L216.998 55.5L211.498 46.5L198.898 55.5Z" fill="#B8B9BA"/>
<path d="M202.2 44.3008C202.7 46.6008 202.6 50.2008 202 54.9008L213.3 45.4008" stroke="#B8B9BA" stroke-width="6" stroke-linecap="square" stroke-linejoin="round"/>
<path d="M193.301 9.2L195.701 13.3L211.601 4.10001L209.201 0L193.301 9.2ZM198.201 11.2L196.601 8.5L201.901 5.5L203.501 8.2L198.201 11.2Z" fill="#909192"/>
<path d="M196.602 8.39844L198.202 11.0984L203.502 8.09843L201.902 5.39844L196.602 8.39844Z" fill="#B8B9BA"/>
<path d="M93.5984 113.102L109.998 112.802L109.398 101.602C103.898 101.802 98.3984 101.902 92.8984 101.802L93.4984 113.102H93.5984Z" fill="#B8B9BA"/>
<path d="M57.6992 142.398V147.198H75.9992V142.398H57.6992ZM60.8992 146.498V143.398H66.9992V146.498H60.8992Z" fill="#909192"/>
<path d="M60.8984 143.398V146.498H66.9984V143.398H60.8984Z" fill="#B8B9BA"/>
<path d="M55.3984 136.5V141.3H73.6984V136.5H55.3984ZM58.6984 140.6V137.5H64.7984V140.6H58.6984Z" fill="#909192"/>
<path d="M58.6992 137.5V140.6H64.7992V137.5H58.6992Z" fill="#B8B9BA"/>
<path d="M57.6992 130.398V135.198H75.9992V130.398H57.6992ZM60.8992 134.498V131.398H66.9992V134.498H60.8992Z" fill="#909192"/>
<path d="M60.8984 131.398V134.498H66.9984V131.398H60.8984Z" fill="#B8B9BA"/>
<path d="M55.3984 124.5V129.3H73.6984V124.5H55.3984ZM58.6984 128.6V125.5H64.7984V128.6H58.6984Z" fill="#909192"/>
<path d="M58.6992 125.5V128.6H64.7992V125.5H58.6992Z" fill="#B8B9BA"/>
<path d="M57.6992 118.898V123.698H75.9992V118.898H57.6992ZM60.8992 122.998V119.898H66.9992V122.998H60.8992Z" fill="#909192"/>
<path d="M60.8984 119.898V122.998H66.9984V119.898H60.8984Z" fill="#B8B9BA"/>
<path d="M55.3984 113V117.8H73.6984V113H55.3984ZM58.6984 117.1V114H64.7984V117.1H58.6984Z" fill="#909192"/>
<path d="M58.6992 114V117.1H64.7992V114H58.6992Z" fill="#B8B9BA"/>
<path d="M32 142.398V147.198H50.3V142.398H32ZM35.3 146.498V143.398H41.4V146.498H35.3Z" fill="#909192"/>
<path d="M35.3008 143.398V146.498H41.4008V143.398H35.3008Z" fill="#B8B9BA"/>
<path d="M29.8008 136.5V141.3H48.1008V136.5H29.8008ZM33.0008 140.6V137.5H39.1008V140.6H33.0008Z" fill="#909192"/>
<path d="M33 137.5V140.6H39.1V137.5H33Z" fill="#B8B9BA"/>
<path d="M32 130.398V135.198H50.3V130.398H32ZM35.3 134.498V131.398H41.4V134.498H35.3Z" fill="#909192"/>
<path d="M35.3008 131.398V134.498H41.4008V131.398H35.3008Z" fill="#B8B9BA"/>
<path d="M124.402 46.7023L123.102 43.7023L118.402 32.1023L155.802 14.9023L156.302 16.2023L160.902 29.0023L161.502 30.2023L162.902 33.1023C162.602 32.5023 162.502 32.2023 162.602 32.3023V32.5023C162.702 32.5023 163.002 33.0023 163.002 33.0023C166.302 41.6023 161.502 47.6023 148.602 51.0023C135.702 54.4023 127.602 53.0023 124.502 46.6023L124.402 46.7023Z" fill="#B8B9BA"/>
<path d="M121.104 44.8039L123.204 43.7039L124.504 46.7039C127.604 53.1039 135.704 54.5039 148.604 51.1039C161.504 47.7039 166.304 41.7039 163.004 33.1039L162.704 32.6039V32.4039C162.504 32.4039 162.604 32.6039 162.804 33.2039L161.404 30.3039L160.804 29.0039L165.504 29.3039L180.304 51.2039C165.904 67.6039 147.704 75.2039 125.704 74.2039L121.004 44.8039H121.104Z" fill="white"/>
<path d="M123.203 11.0008V8.30078" stroke="#0A0A0A" stroke-width="8" stroke-linecap="square" stroke-linejoin="round"/>
<path d="M120.301 11.2L117.801 10.5" stroke="#0A0A0A" stroke-width="5" stroke-linecap="square" stroke-linejoin="round"/>
<path d="M178.202 60.1016C174.902 71.5016 170.202 77.9016 164.002 79.4016C154.002 82.2016 144.102 81.8016 134.502 78.3016C131.502 77.2016 128.602 75.9016 125.602 74.2016L132.102 64.3016L171.202 48.6016L180.202 51.3016C179.602 54.6016 178.902 57.5016 178.102 60.2016L178.202 60.1016Z" fill="white"/>
<path d="M115.702 37.3992L110.602 27.3992L121.902 9.19922L164.502 15.2992L166.102 23.2992C148.802 27.4992 132.002 32.1992 115.702 37.3992Z" fill="#0A0A0A"/>
<path d="M133.5 55.2992C132.8 52.0992 133.9 48.8992 136.9 45.8992C139.8 42.8992 143.7 40.8992 148.5 39.8992C153.3 38.8992 157.7 39.0992 161.6 40.5992C165.5 42.1992 167.8 44.4992 168.5 47.7992C169.2 51.0992 168.1 54.0992 165.2 57.0992C162.2 60.0992 158.3 62.1992 153.5 63.1992C148.7 64.1992 144.3 63.9992 140.4 62.3992C136.5 60.8992 134.1 58.4992 133.4 55.2992H133.5Z" fill="white"/>
<path d="M153.303 36.2016C155.103 34.9016 157.103 34.4016 159.203 34.7016M133.203 42.6016C135.403 40.7016 138.103 39.8016 141.303 39.8016" stroke="#0A0A0A" stroke-width="3" stroke-miterlimit="3" stroke-linecap="square"/>
<path d="M153.001 38.6L156.101 37.9L158.501 42.6C153.401 44.8 148.501 46.3 143.701 46.9C143.301 44.9 143.101 42.9 143.201 40.8L144.201 40.4C144.001 38.8 143.801 37.3 143.601 35.7L150.001 33.5C150.701 34.8 151.701 36.5 152.901 38.6H153.001Z" fill="#B8B9BA"/>
</svg>
