<svg width="158" height="155" viewBox="0 0 158 155" fill="none" xmlns="http://www.w3.org/2000/svg">
<path d="M109.102 48.8984L108.602 49.0984C108.802 49.0984 108.902 49.2984 109.102 49.4984V49.0984V48.9984V48.8984Z" fill="#ECF8FE"/>
<path d="M92.2 109.698L109.2 107.798L104 64.3984L68.5 68.4984L73.1 107.798L71.2 107.598L71.6 111.698L90.4 109.598L92.3 109.798L92.2 109.698Z" fill="#909192"/>
<path d="M3 151.102H154.3" stroke="#D3D4D5" stroke-width="6" stroke-linecap="square" stroke-linejoin="round"/>
<path d="M105.301 75.4008C139.501 69.2008 152.601 58.8008 144.501 44.3008" stroke="#909192" stroke-width="12" stroke-linecap="square" stroke-linejoin="round"/>
<path d="M102.5 110.5L110.3 136.1" stroke="#B8B9BA" stroke-width="12" stroke-linecap="square" stroke-linejoin="round"/>
<path d="M77.6984 109.602L61.8984 141.802" stroke="#B8B9BA" stroke-width="12" stroke-linecap="square" stroke-linejoin="round"/>
<path d="M70.3992 138.9L54.6992 138L49.6992 147.9L65.3992 148.8L70.2992 138.8L70.3992 138.9Z" fill="#0A0A0A"/>
<path d="M44.5 149.102H63" stroke="#0A0A0A" stroke-width="4" stroke-linecap="square" stroke-linejoin="round"/>
<path d="M105 138.202L108.2 148.102L122.1 148.902L118.7 138.902L105 138.102V138.202Z" fill="#0A0A0A"/>
<path d="M110.199 149.301H130.299" stroke="#0A0A0A" stroke-width="4" stroke-miterlimit="3" stroke-linecap="square"/>
<path d="M117.902 127.399L112.202 96.8992L64.4016 94.6992L56.6016 128.199L117.802 127.299L117.902 127.399Z" fill="#909192"/>
<path d="M63.9016 102.598L111.102 99.8984L110.802 102.898L63.6016 105.598L63.9016 102.598Z" fill="#B8B9BA"/>
<path d="M63.3003 73.2C32.1003 68.9 19.9003 60 26.7003 46.5" stroke="#909192" stroke-width="12" stroke-linecap="square" stroke-linejoin="round"/>
<path d="M96.8008 71.5016L111.201 69.1016C115.001 83.6016 117.001 97.1016 117.301 109.702C112.601 111.902 107.601 113.202 102.201 113.602C102.201 101.602 100.301 87.6016 96.8008 71.5016Z" fill="#0A0A0A"/>
<path d="M66.3992 67.5L89.6992 69.6L80.8992 116.9L53.6992 112.6L66.3992 67.5Z" fill="#0A0A0A"/>
<path d="M145.2 30.4018C139.9 29.6018 134.5 29.7018 129 30.6018L130.8 45.8018L146.5 44.3018L145.2 30.4018Z" fill="#B8B9BA"/>
<path d="M126.898 44.2023L133.498 41.6023L132.598 33.4023" stroke="#B8B9BA" stroke-width="6" stroke-linecap="square" stroke-linejoin="round"/>
<path d="M27.3016 29.2014C32.6016 29.0014 38.0016 29.7014 43.4016 31.2014L40.0016 46.1014L24.6016 42.9015L27.4016 29.2014H27.3016Z" fill="#B8B9BA"/>
<path d="M44.0031 44.9016L37.7031 41.6016L39.5031 33.6016" stroke="#B8B9BA" stroke-width="6" stroke-linecap="square" stroke-linejoin="round"/>
<path d="M65.3992 41.8992L65.0992 38.5992L64.1992 26.0992L105.099 21.1992V22.5992C105.199 22.5992 105.599 36.1992 105.599 36.1992V37.4992C105.699 37.4992 106.199 40.6992 106.199 40.6992C106.199 39.9992 106.199 39.6992 106.199 39.7992V39.9992L106.399 40.5992C106.899 49.7992 100.499 54.0992 87.0992 53.2992C73.6992 52.5992 66.4992 48.6992 65.4992 41.6992L65.3992 41.8992Z" fill="#B8B9BA"/>
<path d="M62.7 39.0008L65 38.6008L65.3 41.9008C66.3 48.9008 73.5 52.8008 86.9 53.5008C100.2 54.2008 106.7 50.0008 106.2 40.8008V40.2008L106 40.0008C106 39.9008 106 40.2008 106 40.9008L105.6 37.7008L105.4 36.3008L109.7 38.1008L117 63.5008C98.2 74.6008 78.6 76.3008 58 68.6008L62.6 39.2008L62.7 39.0008Z" fill="white"/>
<path d="M75.1016 7.60001L75.9016 5" stroke="#0A0A0A" stroke-width="8" stroke-linecap="square" stroke-linejoin="round"/>
<path d="M72.4008 6.80078L70.3008 5.30078" stroke="#0A0A0A" stroke-width="5" stroke-linecap="square" stroke-linejoin="round"/>
<path d="M112.402 71.2C105.802 81 99.3016 85.7 93.0016 85.2C82.6016 84.7 73.4016 81.3 65.3016 75C62.8016 73.1 60.4016 70.9 58.1016 68.4L67.3016 60.9L109.302 58L117.002 63.3C115.402 66.2 113.802 68.8 112.302 71.1L112.402 71.2Z" fill="white"/>
<path d="M59.9016 30.4L58.1016 19.3L74.4016 5.5L113.102 24.4L112.202 32.5C94.5016 31.1 77.0016 30.4 59.9016 30.4Z" fill="#0A0A0A"/>
<path d="M70.3992 52.8004C70.6992 49.5004 72.7992 46.9004 76.4992 44.9004C80.1992 43.0004 84.4992 42.2004 89.3992 42.7004C94.2992 43.2004 98.3992 44.8004 101.699 47.4004C104.899 50.1004 106.399 53.1004 105.999 56.4004C105.599 59.7004 103.699 62.3004 99.9992 64.2004C96.2992 66.2004 91.8992 66.9004 86.9992 66.4004C82.0992 65.9004 77.9992 64.3004 74.7992 61.6004C71.4992 59.0004 69.9992 56.0004 70.3992 52.7004V52.8004Z" fill="white"/>
<path d="M72.8984 40.0985C75.5984 38.9985 78.3984 38.8985 81.4984 39.8985M93.9984 40.2985C96.0984 39.5985 98.1984 39.6985 100.098 40.6985" stroke="#0A0A0A" stroke-width="3" stroke-miterlimit="3" stroke-linecap="square"/>
<path d="M93.0016 42.4008L96.2016 42.7008L97.0016 47.9008C91.4016 48.5008 86.3016 48.3008 81.6016 47.4008C81.8016 45.4008 82.3016 43.4008 83.0016 41.5008H84.1016C84.4016 39.9008 84.6016 38.4008 85.0016 36.8008H91.8016C92.1016 38.1008 92.5016 40.0008 93.0016 42.4008Z" fill="#B8B9BA"/>
</svg>
