<svg width="214" height="148" viewBox="0 0 214 148" fill="none" xmlns="http://www.w3.org/2000/svg">
<path d="M117.699 42.1016L117.199 42.3016C117.399 42.3016 117.499 42.5016 117.699 42.7016V42.3016V42.2016V42.1016Z" fill="#ECF8FE"/>
<path d="M100.802 102.902L117.802 101.002L112.602 57.6016L77.1016 61.7016L81.7015 101.002L79.8015 100.802L80.2015 104.902L99.0015 102.802L100.902 103.002L100.802 102.902Z" fill="#909192"/>
<path d="M3 144.301H210.1" stroke="#D3D4D5" stroke-width="6" stroke-linecap="square" stroke-linejoin="round"/>
<path d="M113.898 68.6016C124.098 77.7016 136.598 80.9016 151.298 78.2016" stroke="#909192" stroke-width="12" stroke-linecap="square" stroke-linejoin="round"/>
<path d="M111.1 101L109 126.6" stroke="#B8B9BA" stroke-width="12" stroke-linecap="square" stroke-linejoin="round"/>
<path d="M90.8015 102.801L72.6016 135.001" stroke="#B8B9BA" stroke-width="12" stroke-linecap="square" stroke-linejoin="round"/>
<path d="M60.1016 141.102L75.8015 142.002L81.3015 132.002L65.7015 131.102L60.1016 141.002V141.102Z" fill="#0A0A0A"/>
<path d="M54.3008 142.301H72.9008" stroke="#0A0A0A" stroke-width="4" stroke-linecap="square" stroke-linejoin="round"/>
<path d="M102.299 131.398L115.799 132.198L115.199 142.198L101.699 141.398L102.299 131.398Z" fill="#0A0A0A"/>
<path d="M103.699 142.5H123.799" stroke="#0A0A0A" stroke-width="4" stroke-miterlimit="3" stroke-linecap="square"/>
<path d="M73.0008 88L120.801 90.1L119.701 121.1L65.3008 121.5L73.1008 88H73.0008Z" fill="#909192"/>
<path d="M72.4992 95.8015L119.699 93.1016L119.399 96.1016L72.1992 98.8015L72.4992 95.8015Z" fill="#B8B9BA"/>
<path d="M105.398 64.7008L119.798 62.3008C123.598 76.8008 125.598 90.3008 125.898 102.901C121.198 105.101 116.198 106.401 110.798 106.801C110.798 94.8008 108.898 80.8008 105.398 64.7008Z" fill="#0A0A0A"/>
<path d="M76.7992 60.6016L103.799 62.9016L94.7992 110.202L63.1992 105.702L76.7992 60.7016V60.6016Z" fill="#0A0A0A"/>
<path d="M84.3984 76.6016C96.3984 84.9016 109.998 87.4016 124.998 83.9016" stroke="#909192" stroke-width="12" stroke-linecap="square" stroke-linejoin="round"/>
<path d="M134.5 76.7L137.3 56" stroke="#333333" stroke-width="10" stroke-miterlimit="3" stroke-linecap="square"/>
<path d="M125.4 85.3008L141.4 84.8008L141 71.8008L125 72.3008C125.3 76.7008 125.5 81.0008 125.4 85.3008Z" fill="#B8B9BA"/>
<path d="M128 68.5V74.8C128.1 74.8 141 71.7 141 71.7" stroke="#B8B9BA" stroke-width="6" stroke-miterlimit="3" stroke-linecap="square"/>
<path d="M71.3008 42.4016L70.0008 39.4016L65.3008 27.8016L102.701 10.6016L103.201 11.9016L107.801 24.7016L108.401 25.9016L109.801 28.8016C109.501 28.2016 109.401 27.9016 109.501 28.0016V28.2016C109.601 28.2016 109.901 28.7016 109.901 28.7016C113.201 37.3016 108.401 43.3016 95.5008 46.7016C82.6008 50.1016 74.5008 48.7016 71.4008 42.3016L71.3008 42.4016Z" fill="#B8B9BA"/>
<path d="M67.9008 40.5031L70.0008 39.4031L71.3008 42.4031C74.4008 48.8031 82.5008 50.2031 95.4008 46.8031C108.301 43.4031 113.101 37.4031 109.801 28.8031L109.501 28.3031V28.1031C109.301 28.1031 109.401 28.3031 109.601 28.9031L108.201 26.0031L107.601 24.7031L112.301 25.0031L127.101 46.9031C112.701 63.3031 94.5008 70.9031 72.5008 69.9031L67.8008 40.5031H67.9008Z" fill="white"/>
<path d="M70.1016 6.7V4" stroke="#0A0A0A" stroke-width="8" stroke-linecap="square" stroke-linejoin="round"/>
<path d="M67.1992 6.89922L64.6992 6.19922" stroke="#0A0A0A" stroke-width="5" stroke-linecap="square" stroke-linejoin="round"/>
<path d="M125.1 55.8008C121.8 67.2008 117.1 73.6008 110.9 75.1008C100.9 77.9008 91 77.5008 81.4 74.0008C78.4 72.9008 75.5 71.6008 72.5 69.9008L79 60.0008L118.1 44.3008L127.1 47.0008C126.5 50.3008 125.8 53.2008 125 55.9008L125.1 55.8008Z" fill="white"/>
<path d="M62.6 33.0984L57.5 23.0984L68.8 4.89844L111.4 10.9984L113 18.9984C95.7 23.1984 78.9 27.8984 62.6 33.0984Z" fill="#0A0A0A"/>
<path d="M80.3988 50.9984C79.6988 47.7984 80.7987 44.5984 83.7987 41.5984C86.6987 38.5984 90.5988 36.5984 95.3988 35.5984C100.199 34.5984 104.599 34.7984 108.499 36.2984C112.399 37.8984 114.699 40.1984 115.399 43.4984C116.099 46.7984 114.999 49.7984 112.099 52.7984C109.099 55.7984 105.199 57.8984 100.399 58.8984C95.5988 59.8984 91.1987 59.6984 87.2987 58.0984C83.3987 56.5984 80.9987 54.1984 80.2987 50.9984H80.3988Z" fill="white"/>
<path d="M100.202 31.9008C102.002 30.6008 104.002 30.1008 106.102 30.4008M80.1016 38.3008C82.3016 36.4008 85.0015 35.5008 88.2015 35.5008" stroke="#0A0A0A" stroke-width="3" stroke-miterlimit="3" stroke-linecap="square"/>
<path d="M99.8997 34.2992L103 33.5992L105.4 38.2992C100.3 40.4992 95.3997 41.9992 90.5997 42.5992C90.1997 40.5992 89.9997 38.5992 90.0997 36.4992L91.0997 36.0992C90.8997 34.4992 90.6997 32.9992 90.4997 31.3992L96.8997 29.1992C97.5997 30.4992 98.5997 32.1992 99.7997 34.2992H99.8997Z" fill="#B8B9BA"/>
<path d="M161.402 67.5C157.802 69.8 155.602 72.6 154.902 75.9" stroke="#B8B9BA" stroke-width="10" stroke-miterlimit="3" stroke-linecap="square"/>
<path d="M193.501 47.0016V38.6016H157.701C160.201 55.8016 158.801 72.3016 153.301 88.0016L189.801 86.9016C192.501 73.4016 193.801 60.2016 193.501 47.0016Z" fill="#D3D4D6"/>
<path d="M162.501 72.5L155.801 76.4" stroke="#B8B9BA" stroke-width="7" stroke-miterlimit="3" stroke-linecap="square"/>
</svg>
